<svg width="28" height="28" fill="none" xmlns="http://www.w3.org/2000/svg"><path d="M11.341 15.315a.41.41 0 0 0-.41-.41H1.725A.906.906 0 0 1 .82 14V1.725c0-.499.406-.905.905-.905H14c.499 0 .905.406.905.905v9.206a.41.41 0 1 0 .82 0V1.725C15.725.774 14.951 0 14 0H1.725C.774 0 0 .774 0 1.725V14c0 .951.774 1.725 1.725 1.725h9.206a.41.41 0 0 0 .41-.41Z" fill="#000"/><path d="M26.275 12.275h-3.507a.41.41 0 1 0 0 .82h3.507c.499 0 .905.406.905.905v12.275c0 .499-.406.905-.905.905H14a.906.906 0 0 1-.905-.905V14c0-.499.406-.905.905-.905h7.014a.41.41 0 1 0 0-.82H14c-.951 0-1.725.774-1.725 1.725v12.275c0 .951.774 1.725 1.725 1.725h12.275c.951 0 1.725-.774 1.725-1.725V14c0-.951-.774-1.725-1.725-1.725ZM11.808 4.384H8.273v-.467a.41.41 0 0 0-.82 0v.467H3.916a.41.41 0 0 0 0 .82h6.04A11.446 11.446 0 0 1 7.861 9.02a11.546 11.546 0 0 1-1.647-2.643.41.41 0 0 0-.749.336c.384.856.97 1.896 1.843 2.925a11.098 11.098 0 0 1-2.287 1.818.41.41 0 1 0 .422.704 11.934 11.934 0 0 0 2.418-1.915 11.95 11.95 0 0 0 2.42 1.915.408.408 0 0 0 .564-.141.41.41 0 0 0-.141-.563 11.133 11.133 0 0 1-2.29-1.819A12.331 12.331 0 0 0 9.868 7.51c.544-1.011.822-1.861.945-2.305h.995a.41.41 0 0 0 0-.82Z" fill="#000"/><path d="M20.696 16.147a.587.587 0 0 0-1.09.001l-.004.009-2.963 7.78a.41.41 0 0 0 .767.292l.637-1.674h4.195l.63 1.672a.41.41 0 1 0 .768-.29l-2.936-7.78a.847.847 0 0 0-.004-.01Zm-2.34 5.588 1.794-4.712 1.778 4.712h-3.573ZM11.177 22.44l-1.753-1.316a.41.41 0 0 0-.492.657l.769.577H8.3a2.662 2.662 0 0 1-2.659-2.659v-2.63a.41.41 0 0 0-.82 0v2.63a3.483 3.483 0 0 0 3.479 3.479h1.4l-.77.577a.41.41 0 0 0 .493.656l1.753-1.315a.41.41 0 0 0 0-.657ZM16.823 5.56l1.753 1.316a.408.408 0 0 0 .574-.082.41.41 0 0 0-.082-.575l-.769-.577h1.4a2.662 2.662 0 0 1 2.659 2.659v2.63a.41.41 0 0 0 .82 0v-2.63a3.483 3.483 0 0 0-3.479-3.479h-1.4l.77-.577a.41.41 0 0 0-.493-.656l-1.753 1.315a.41.41 0 0 0 0 .656Z" fill="#000"/></svg>