<svg width="25" height="25" fill="none" xmlns="http://www.w3.org/2000/svg"><path d="M24.41 14.227c-.256-.064-.512 0-.736.16a9.363 9.363 0 0 1-2.843 1.668c-.99.385-2.077.577-3.227.577a9.379 9.379 0 0 1-6.645-2.757A9.445 9.445 0 0 1 8.21 7.206c0-1.09.192-2.148.511-3.11a8.618 8.618 0 0 1 1.534-2.757.82.82 0 0 0-.128-1.154c-.224-.16-.48-.225-.735-.16-2.716.737-5.08 2.372-6.773 4.552C.99 6.725 0 9.387 0 12.304c0 3.495 1.406 6.669 3.706 8.977A12.583 12.583 0 0 0 12.652 25c2.94 0 5.655-1.026 7.827-2.725a12.645 12.645 0 0 0 4.473-7.021c.16-.481-.096-.93-.543-1.027Zm-4.89 6.701a10.894 10.894 0 0 1-6.804 2.373c-3.035 0-5.783-1.25-7.764-3.238a11.02 11.02 0 0 1-3.227-7.791c0-2.533.83-4.841 2.269-6.7a10.993 10.993 0 0 1 3.674-3.079c-.16.353-.32.706-.448 1.09-.415 1.155-.607 2.373-.607 3.655 0 3.046 1.246 5.835 3.227 7.823a11.02 11.02 0 0 0 7.796 3.238c1.342 0 2.62-.224 3.802-.673.415-.16.83-.32 1.214-.513-.767 1.475-1.821 2.79-3.131 3.815Z" fill="#000"/></svg>