<svg width="20" height="20" fill="none" xmlns="http://www.w3.org/2000/svg"><path d="M19.544 2.949L17.053.458a1.567 1.567 0 00-2.213 0L2.315 12.982a.391.391 0 00-.093.148l-2.2 6.351a.39.39 0 00.498.497l6.352-2.2a.393.393 0 00.148-.092L19.544 5.162c.605-.58.605-1.634 0-2.213zM16.23 7.372l-2.7-2.7-.9-.9.829-.829 3.6 3.6-.83.829zm-9.222 9.221l-.174-1.074 8.22-8.219.623.624-8.67 8.67zm5.07-12.269l.623.624-8.219 8.22-1.074-.174 8.67-8.67zM13.254 5.5L14.5 6.748 6.26 14.989l-1.213-.035-.035-1.212L13.254 5.5zm-10.4 8.196l1.382.223.041 1.426a.39.39 0 00.38.38l1.426.04.223 1.383-3.09 1.07a2.725 2.725 0 00-.577-.855 2.725 2.725 0 00-.856-.577l1.07-3.09zm-1.327 3.83c.416.19.758.532.948.949l-1.45.502.502-1.45zM18.992 4.61L17.61 5.99l-3.6-3.599 1.381-1.381a.785.785 0 011.108 0l2.492 2.491a.792.792 0 010 1.109z" fill="#fff"/></svg>