<svg width="28" height="28" fill="none" xmlns="http://www.w3.org/2000/svg"><path d="M13.998 23.372a.955.955 0 0 0-.955.956v2.716a.955.955 0 1 0 1.91 0v-2.716a.955.955 0 0 0-.955-.956ZM13.998 4.628a.955.955 0 0 0 .956-.955V.956a.955.955 0 1 0-1.911 0v2.717c0 .527.428.955.955.955ZM6.022 20.627 4.1 22.547A.955.955 0 1 0 5.451 23.9l1.922-1.92a.955.955 0 1 0-1.351-1.352ZM21.302 7.653a.953.953 0 0 0 .675-.28l1.922-1.92A.956.956 0 0 0 22.547 4.1l-1.92 1.92a.956.956 0 0 0 .675 1.632ZM4.628 14a.956.956 0 0 0-.956-.955H.955a.956.956 0 0 0 0 1.91h2.717A.955.955 0 0 0 4.628 14ZM27.044 13.045h-2.717a.955.955 0 1 0 0 1.91h2.717a.955.955 0 1 0 0-1.91ZM6.022 7.373a.953.953 0 0 0 1.351 0 .956.956 0 0 0 0-1.352l-1.92-1.92A.955.955 0 1 0 4.1 5.45l1.92 1.922ZM21.978 20.627a.955.955 0 1 0-1.351 1.351l1.92 1.92a.953.953 0 0 0 1.352 0 .955.955 0 0 0 0-1.35l-1.92-1.92ZM14 6.563c-4.101 0-7.437 3.337-7.437 7.438 0 4.1 3.336 7.436 7.436 7.436 4.101 0 7.438-3.336 7.438-7.437 0-4.1-3.337-7.437-7.438-7.437Zm0 12.963a5.532 5.532 0 0 1-5.526-5.525 5.532 5.532 0 0 1 5.525-5.527 5.532 5.532 0 0 1 5.527 5.527 5.532 5.532 0 0 1-5.527 5.525Z" fill="#fff"/></svg>
