<svg width="30" height="30" fill="none" xmlns="http://www.w3.org/2000/svg"><path d="M15 30c8.284 0 15-6.716 15-15 0-8.284-6.716-15-15-15C6.716 0 0 6.716 0 15c0 8.284 6.716 15 15 15z" fill="url(#paint0_linear)"/><path fill-rule="evenodd" clip-rule="evenodd" d="M6.79 14.842c4.373-1.905 7.288-3.162 8.747-3.768C19.703 9.34 20.57 9.04 21.133 9.03c.124-.002.402.029.581.174.152.124.194.29.214.407.02.116.044.382.025.59-.226 2.372-1.203 8.128-1.7 10.784-.21 1.125-.624 1.501-1.025 1.538-.87.08-1.532-.575-2.376-1.128-1.32-.866-2.066-1.405-3.348-2.25-1.48-.975-.52-1.511.324-2.388.22-.23 4.058-3.72 4.133-4.037.009-.04.018-.187-.07-.265-.088-.078-.217-.052-.31-.03-.133.03-2.242 1.424-6.328 4.182-.598.41-1.14.611-1.626.6-.536-.011-1.566-.302-2.332-.551-.94-.306-1.686-.467-1.621-.986.034-.27.406-.546 1.116-.828z" fill="#fff"/><defs><linearGradient id="paint0_linear" x1="15" y1="0" x2="15" y2="29.777" gradientUnits="userSpaceOnUse"><stop stop-color="#2AABEE"/><stop offset="1" stop-color="#229ED9"/></linearGradient></defs></svg>