<svg xmlns="http://www.w3.org/2000/svg" xmlns:xlink="http://www.w3.org/1999/xlink" viewBox="0 0 375 375" version="1.2"><defs><symbol overflow="visible" id="a"><path d="M9.719-49.5c-4.68-2.281-7.016-6.422-7.016-12.422 0-6 2.399-10.195 7.203-12.594 41.157-24.363 64.79-38.406 70.906-42.125 6.126-3.718 9.786-5.757 10.985-6.125 1.32-.593 2.883-.89 4.687-.89 3.239 0 6.598 2.937 10.079 8.812 2.28 3.719 3.421 6.512 3.421 8.375 0 1.856-.421 3.446-1.265 4.766-1.086 1.93-3.543 4.148-7.375 6.656-35.762 21.125-54.36 32.168-55.797 33.125l55.797 33.125c2.281 1.324 3.898 2.402 4.86 3.235 2.632 2.167 3.952 4.507 3.952 7.015 0 2.406-1.054 5.32-3.156 8.735-2.094 3.417-3.984 5.851-5.672 7.296-1.68 1.438-3.414 2.157-5.203 2.157-2.406 0-5.527-1.141-9.36-3.422zm0 0"/></symbol><symbol overflow="visible" id="b"><path d="M31.688 1.438c-.97 2.039-1.727 3.539-2.266 4.5-.531.957-1.43 1.882-2.688 2.78-1.261.907-2.914 1.36-4.953 1.36-2.043 0-5.043-.902-9-2.703-3.96-1.793-6.633-3.383-8.015-4.766C3.39 1.234 2.703-.289 2.703-1.969c0-1.687.719-4.691 2.156-9.015l57.953-121.141c2.282-4.55 4.32-7.191 6.126-7.922.957-.476 2.363-.719 4.218-.719 1.864 0 4.899.965 9.11 2.891 6.476 3.117 9.718 6.531 9.718 10.25 0 1.563-.843 4.563-2.53 9zm0 0"/></symbol><symbol overflow="visible" id="c"><path d="M102.766-74.516c4.8 2.399 7.203 6.594 7.203 12.594 0 6-2.34 10.14-7.016 12.422L26.093-3.781C19.97.176 15.048.598 11.329-2.516 9.648-3.96 7.91-6.125 6.11-9c-2.398-3.957-3.593-6.836-3.593-8.64 0-1.801.359-3.36 1.078-4.672 1.32-2.04 3.898-4.204 7.734-6.485l55.984-33.125-55.796-33.125c-2.168-1.312-3.79-2.39-4.86-3.234-2.648-2.281-3.968-4.739-3.968-7.375 0-2.406 1.019-5.285 3.062-8.64 3.719-6.24 7.195-9.36 10.438-9.36 2.882 0 6.125 1.14 9.718 3.422zm0 0"/></symbol></defs><circle cx="50%" cy="50%" r="50%" fill="#2b46bd"/><use xlink:href="#a" x="31.799" y="253.875" fill="#fff"/><use xlink:href="#b" x="140.159" y="253.875" fill="#fff"/><use xlink:href="#c" x="230.339" y="253.875" fill="#fff"/></svg>